<mxfile host="app.diagrams.net" modified="2023-02-14T10:13:55.011Z" agent="5.0 (Windows)" etag="_VBfUYCYBCZ23GSc6v7K" version="20.8.20" type="github">
  <diagram name="第 1 页" id="1UepaLrcdRGTGlDyjXf0">
    <mxGraphModel dx="1210" dy="612" grid="1" gridSize="10" guides="1" tooltips="1" connect="1" arrows="1" fold="1" page="1" pageScale="1" pageWidth="827" pageHeight="1169" math="0" shadow="0">
      <root>
        <mxCell id="0" />
        <mxCell id="1" parent="0" />
        <mxCell id="zBVHz-Jnh63N-da_ZJx6-4" style="edgeStyle=orthogonalEdgeStyle;rounded=0;orthogonalLoop=1;jettySize=auto;html=1;entryX=0.5;entryY=0;entryDx=0;entryDy=0;" edge="1" parent="1" source="zBVHz-Jnh63N-da_ZJx6-1" target="zBVHz-Jnh63N-da_ZJx6-2">
          <mxGeometry relative="1" as="geometry" />
        </mxCell>
        <mxCell id="zBVHz-Jnh63N-da_ZJx6-5" style="edgeStyle=orthogonalEdgeStyle;rounded=0;orthogonalLoop=1;jettySize=auto;html=1;entryX=0.5;entryY=0;entryDx=0;entryDy=0;" edge="1" parent="1" source="zBVHz-Jnh63N-da_ZJx6-1" target="zBVHz-Jnh63N-da_ZJx6-3">
          <mxGeometry relative="1" as="geometry" />
        </mxCell>
        <mxCell id="zBVHz-Jnh63N-da_ZJx6-1" value="雨天路面深坑检测系统 &lt;br/&gt;" style="rounded=0;whiteSpace=wrap;html=1;fillColor=#dae8fc;strokeColor=#6c8ebf;" vertex="1" parent="1">
          <mxGeometry x="330" y="90" width="190" height="60" as="geometry" />
        </mxCell>
        <mxCell id="zBVHz-Jnh63N-da_ZJx6-8" style="edgeStyle=orthogonalEdgeStyle;rounded=0;orthogonalLoop=1;jettySize=auto;html=1;entryX=0.5;entryY=0;entryDx=0;entryDy=0;" edge="1" parent="1" source="zBVHz-Jnh63N-da_ZJx6-2" target="zBVHz-Jnh63N-da_ZJx6-6">
          <mxGeometry relative="1" as="geometry" />
        </mxCell>
        <mxCell id="zBVHz-Jnh63N-da_ZJx6-9" style="edgeStyle=orthogonalEdgeStyle;rounded=0;orthogonalLoop=1;jettySize=auto;html=1;entryX=0.5;entryY=0;entryDx=0;entryDy=0;" edge="1" parent="1" source="zBVHz-Jnh63N-da_ZJx6-2" target="zBVHz-Jnh63N-da_ZJx6-7">
          <mxGeometry relative="1" as="geometry" />
        </mxCell>
        <mxCell id="zBVHz-Jnh63N-da_ZJx6-2" value="控制模块" style="rounded=0;whiteSpace=wrap;html=1;fillColor=#dae8fc;strokeColor=#6c8ebf;" vertex="1" parent="1">
          <mxGeometry x="260" y="200" width="120" height="60" as="geometry" />
        </mxCell>
        <mxCell id="zBVHz-Jnh63N-da_ZJx6-12" style="edgeStyle=orthogonalEdgeStyle;rounded=0;orthogonalLoop=1;jettySize=auto;html=1;" edge="1" parent="1" source="zBVHz-Jnh63N-da_ZJx6-3" target="zBVHz-Jnh63N-da_ZJx6-11">
          <mxGeometry relative="1" as="geometry" />
        </mxCell>
        <mxCell id="zBVHz-Jnh63N-da_ZJx6-3" value="检测机构 " style="rounded=0;whiteSpace=wrap;html=1;fillColor=#dae8fc;strokeColor=#6c8ebf;" vertex="1" parent="1">
          <mxGeometry x="500" y="200" width="120" height="60" as="geometry" />
        </mxCell>
        <mxCell id="zBVHz-Jnh63N-da_ZJx6-16" style="edgeStyle=orthogonalEdgeStyle;rounded=0;orthogonalLoop=1;jettySize=auto;html=1;" edge="1" parent="1" source="zBVHz-Jnh63N-da_ZJx6-6" target="zBVHz-Jnh63N-da_ZJx6-15">
          <mxGeometry relative="1" as="geometry" />
        </mxCell>
        <mxCell id="zBVHz-Jnh63N-da_ZJx6-6" value="中央处理器" style="rounded=0;whiteSpace=wrap;html=1;fillColor=#dae8fc;strokeColor=#6c8ebf;" vertex="1" parent="1">
          <mxGeometry x="170" y="320" width="120" height="60" as="geometry" />
        </mxCell>
        <mxCell id="zBVHz-Jnh63N-da_ZJx6-7" value="启动部件 " style="rounded=0;whiteSpace=wrap;html=1;fillColor=#dae8fc;strokeColor=#6c8ebf;" vertex="1" parent="1">
          <mxGeometry x="340" y="320" width="120" height="60" as="geometry" />
        </mxCell>
        <mxCell id="zBVHz-Jnh63N-da_ZJx6-10" value="汽车雨刮器 &lt;br/&gt;" style="rounded=0;whiteSpace=wrap;html=1;fillColor=#d5e8d4;strokeColor=#82b366;" vertex="1" parent="1">
          <mxGeometry x="340" y="540" width="120" height="60" as="geometry" />
        </mxCell>
        <mxCell id="zBVHz-Jnh63N-da_ZJx6-11" value="摄像头" style="rounded=0;whiteSpace=wrap;html=1;fillColor=#dae8fc;strokeColor=#6c8ebf;" vertex="1" parent="1">
          <mxGeometry x="500" y="320" width="120" height="60" as="geometry" />
        </mxCell>
        <mxCell id="zBVHz-Jnh63N-da_ZJx6-13" value="汽车音箱电性 " style="rounded=0;whiteSpace=wrap;html=1;fillColor=#d5e8d4;strokeColor=#82b366;" vertex="1" parent="1">
          <mxGeometry x="170" y="540" width="120" height="60" as="geometry" />
        </mxCell>
        <mxCell id="zBVHz-Jnh63N-da_ZJx6-17" style="edgeStyle=orthogonalEdgeStyle;rounded=0;orthogonalLoop=1;jettySize=auto;html=1;entryX=0.5;entryY=1;entryDx=0;entryDy=0;" edge="1" parent="1" source="zBVHz-Jnh63N-da_ZJx6-14" target="zBVHz-Jnh63N-da_ZJx6-13">
          <mxGeometry relative="1" as="geometry" />
        </mxCell>
        <mxCell id="zBVHz-Jnh63N-da_ZJx6-19" style="edgeStyle=orthogonalEdgeStyle;rounded=0;orthogonalLoop=1;jettySize=auto;html=1;entryX=0.5;entryY=1;entryDx=0;entryDy=0;" edge="1" parent="1" source="zBVHz-Jnh63N-da_ZJx6-14" target="zBVHz-Jnh63N-da_ZJx6-10">
          <mxGeometry relative="1" as="geometry" />
        </mxCell>
        <mxCell id="zBVHz-Jnh63N-da_ZJx6-14" value="汽车" style="rounded=0;whiteSpace=wrap;html=1;fillColor=#d5e8d4;strokeColor=#82b366;" vertex="1" parent="1">
          <mxGeometry x="240" y="700" width="120" height="60" as="geometry" />
        </mxCell>
        <mxCell id="zBVHz-Jnh63N-da_ZJx6-15" value="语音提示部件" style="rounded=0;whiteSpace=wrap;html=1;fillColor=#dae8fc;strokeColor=#6c8ebf;" vertex="1" parent="1">
          <mxGeometry x="170" y="410" width="120" height="60" as="geometry" />
        </mxCell>
        <mxCell id="zBVHz-Jnh63N-da_ZJx6-20" value="" style="endArrow=classic;startArrow=classic;html=1;rounded=0;exitX=0.5;exitY=0;exitDx=0;exitDy=0;entryX=0.5;entryY=1;entryDx=0;entryDy=0;" edge="1" parent="1" source="zBVHz-Jnh63N-da_ZJx6-10" target="zBVHz-Jnh63N-da_ZJx6-7">
          <mxGeometry width="50" height="50" relative="1" as="geometry">
            <mxPoint x="410" y="550" as="sourcePoint" />
            <mxPoint x="460" y="500" as="targetPoint" />
          </mxGeometry>
        </mxCell>
        <mxCell id="zBVHz-Jnh63N-da_ZJx6-22" value="" style="endArrow=classic;startArrow=classic;html=1;rounded=0;entryX=0.5;entryY=1;entryDx=0;entryDy=0;" edge="1" parent="1" source="zBVHz-Jnh63N-da_ZJx6-13" target="zBVHz-Jnh63N-da_ZJx6-15">
          <mxGeometry width="50" height="50" relative="1" as="geometry">
            <mxPoint x="140" y="560" as="sourcePoint" />
            <mxPoint x="190" y="510" as="targetPoint" />
          </mxGeometry>
        </mxCell>
      </root>
    </mxGraphModel>
  </diagram>
</mxfile>
